<svg xmlns="http://www.w3.org/2000/svg" viewBox="9 46 66 12">
    <g id="logo" fill="none" stroke="#ffffff" stroke-width="1" stroke-linecap="round" stroke-linejoin="round">
        <path
            d="M 10 55,l 0 2 5 0 0 -4 -5 0 0 -4 5 0 0 2,m 2 -2,l 2.5 8 2.5 -8,m 6.5 0,l -3.5 0 -1 1 0 6 1 1 3 0 1 -1 0 -3 -2 0,m 4 -4,l 0 8 5 0,m 2 -1,l 1 1 3 0 1 -1 0 -6 -1 -1 -3 0 -1 1 0 6,m 7 1,l 2.5 -8 2.5 8,m -1 -3,l -3 0,m 6 3,l 4 0 1 -1 0 -6 -1 -1 -4 0 0 8,m 10 0,l 0 -8 5 8 0 -8,m 6.5 0,l -3.5 0 -1 1 0 6 1 1 3 0 1 -1 0 -3 -2 0" />
        <line id="l1" x1="59.5" y1="57" x2="59.5" y2="51.5" />
        <circle id="c1" cx="59.5" cy="49.5" r="0.2" fill="#ff0000" stroke="#ff0000" />
        <animateTransform href="#l1" attributeName="transform" attributeType="XML" type="translate"
            values="0 0;0 -2;0 0;0 0" keyTimes="0;0.1;0.2;1" dur="1" repeatCount="indefinite" />
        <animateTransform href="#c1" attributeName="transform" attributeType="XML" type="translate"
            values="0 0;0 -3;0 0" keyTimes="0;0.3;1" dur="1" repeatCount="indefinite" />
    </g>
</svg>