<svg xmlns="http://www.w3.org/2000/svg" viewBox="0 0 70 70">
    <g id="l" fill="none" stroke="#ffffff" stroke-width="2" stroke-opacity="0.3">
        <rect x="1" y="1" width="18" height="18" rx="5" ry="5" />
        <rect x="26" y="1" width="18" height="18" rx="5" ry="5" />
        <rect x="51" y="1" width="18" height="18" rx="5" ry="5" />
        <rect x="1" y="26" width="18" height="18" rx="5" ry="5" />
        <rect x="26" y="26" width="18" height="18" rx="5" ry="5" />
        <rect x="51" y="26" width="18" height="18" rx="5" ry="5" />
        <rect x="1" y="51" width="18" height="18" rx="5" ry="5" />
        <rect x="26" y="51" width="18" height="18" rx="5" ry="5" />
        <rect x="51" y="51" width="18" height="18" rx="5" ry="5" />
        <path id="path" d="M 10 10,l 50 0 0 50 -50 0 0 -25 25 0 0 -25 25 0 0 50 -50 0 0 -50" stroke-opacity="0" />
        <rect id="move" x="-9" y="-9" width="18" height="18" rx="5" ry="5" stroke-opacity="1" />
        <animateMotion href="#move" dur="12" rotate="auto" repeatCount="indefinite">
            <mpath href="#path" />
        </animateMotion>
    </g>
</svg>