<svg xmlns="http://www.w3.org/2000/svg" viewBox="25 25 50 50">
    <g id="l" fill="none" stroke="#fff" stroke-width="0.8">
        <line id="l1" transform="rotate(0 50 50) translate(0 -17)" x1="50" y1="45" x2="50" y2="55" />
        <line id="l2" transform="rotate(30 50 50) translate(0 -17)" x1="50" y1="45" x2="50" y2="55" />
        <line id="l3" transform="rotate(60 50 50) translate(0 -17)" x1="50" y1="45" x2="50" y2="55" />
        <line id="l4" transform="rotate(90 50 50) translate(0 -17)" x1="50" y1="45" x2="50" y2="55" />
        <line id="l5" transform="rotate(120 50 50) translate(0 -17)" x1="50" y1="45" x2="50" y2="55" />
        <line id="l6" transform="rotate(150 50 50) translate(0 -17)" x1="50" y1="45" x2="50" y2="55" />
        <line id="l7" transform="rotate(180 50 50) translate(0 -17)" x1="50" y1="45" x2="50" y2="55" />
        <line id="l8" transform="rotate(210 50 50) translate(0 -17)" x1="50" y1="45" x2="50" y2="55" />
        <line id="l9" transform="rotate(240 50 50) translate(0 -17)" x1="50" y1="45" x2="50" y2="55" />
        <line id="l10" transform="rotate(270 50 50) translate(0 -17)" x1="50" y1="45" x2="50" y2="55" />
        <line id="l11" transform="rotate(300 50 50) translate(0 -17)" x1="50" y1="45" x2="50" y2="55" />
        <line id="l12" transform="rotate(330 50 50) translate(0 -17)" x1="50" y1="45" x2="50" y2="55" />
        <animate href="#l1" attributeType="XML" attributeName="stroke-opacity" values="0;1;0" dur="0.55"
            repeatCount="indefinite" />
        <animate href="#l2" attributeType="XML" attributeName="stroke-opacity" values="0;1;0" dur="0.55" begin="0.0.5"
            repeatCount="indefinite" />
        <animate href="#l3" attributeType="XML" attributeName="stroke-opacity" values="0;1;0" dur="0.55" begin="0.1"
            repeatCount="indefinite" />
        <animate href="#l4" attributeType="XML" attributeName="stroke-opacity" values="0;1;0" dur="0.55" begin="0.15"
            repeatCount="indefinite" />
        <animate href="#l5" attributeType="XML" attributeName="stroke-opacity" values="0;1;0" dur="0.55" begin="0.2"
            repeatCount="indefinite" />
        <animate href="#l6" attributeType="XML" attributeName="stroke-opacity" values="0;1;0" dur="0.55" begin="0.25"
            repeatCount="indefinite" />
        <animate href="#l7" attributeType="XML" attributeName="stroke-opacity" values="0;1;0" dur="0.55" begin="0.3"
            repeatCount="indefinite" />
        <animate href="#l8" attributeType="XML" attributeName="stroke-opacity" values="0;1;0" dur="0.55" begin="0.35"
            repeatCount="indefinite" />
        <animate href="#l9" attributeType="XML" attributeName="stroke-opacity" values="0;1;0" dur="0.55" begin="0.4"
            repeatCount="indefinite" />
        <animate href="#l10" attributeType="XML" attributeName="stroke-opacity" values="0;1;0" dur="0.55" begin="0.45"
            repeatCount="indefinite" />
        <animate href="#l11" attributeType="XML" attributeName="stroke-opacity" values="0;1;0" dur="0.55" begin="0.5"
            repeatCount="indefinite" />
        <animate href="#l12" attributeType="XML" attributeName="stroke-opacity" values="0;1;0" dur="0.55" begin="0.55"
            repeatCount="indefinite" />
    </g>
</svg>